<?xml version="1.0" encoding="UTF-8" standalone="no"?>
<!-- Created with Inkscape (http://www.inkscape.org/) -->
<svg xmlns:dc="http://purl.org/dc/elements/1.1/" xmlns:cc="http://creativecommons.org/ns#" xmlns:rdf="http://www.w3.org/1999/02/22-rdf-syntax-ns#" xmlns:svg="http://www.w3.org/2000/svg" xmlns="http://www.w3.org/2000/svg" xmlns:sodipodi="http://sodipodi.sourceforge.net/DTD/sodipodi-0.dtd" xmlns:inkscape="http://www.inkscape.org/namespaces/inkscape" width="400" height="400" viewBox="0 0 26.458333 26.458333" version="1.1" id="svg8" inkscape:version="0.92.1 unknown" sodipodi:docname="key3.svg" inkscape:export-filename="/home/arathnim/logos/key-display.png" inkscape:export-xdpi="96" inkscape:export-ydpi="96">
  <defs id="defs2">
    <filter style="color-interpolation-filters:sRGB;" inkscape:label="Drop Shadow" id="filter4945">
      <feFlood flood-opacity="0.14999999999999999" flood-color="rgb(0,0,0)" result="flood" id="feFlood4935"/>
      <feComposite in="flood" in2="SourceGraphic" operator="in" result="composite1" id="feComposite4937"/>
      <feGaussianBlur in="composite1" stdDeviation="2.77556e-17" result="blur" id="feGaussianBlur4939"/>
      <feOffset dx="0.5" dy="0.5" result="offset" id="feOffset4941"/>
      <feComposite in="SourceGraphic" in2="offset" operator="over" result="composite2" id="feComposite4943"/>
    </filter>
    <filter style="color-interpolation-filters:sRGB;" inkscape:label="Drop Shadow" id="filter5269">
      <feFlood flood-opacity="0.70000000000000007" flood-color="rgb(0,0,0)" result="flood" id="feFlood5259"/>
      <feComposite in="flood" in2="SourceGraphic" operator="in" result="composite1" id="feComposite5261"/>
      <feGaussianBlur in="composite1" stdDeviation="0.4" result="blur" id="feGaussianBlur5263"/>
      <feOffset dx="0.2" dy="0.2" result="offset" id="feOffset5265"/>
      <feComposite in="SourceGraphic" in2="offset" operator="over" result="composite2" id="feComposite5267"/>
    </filter>
  </defs>
  <sodipodi:namedview id="base" pagecolor="#ffffff" bordercolor="#666666" borderopacity="1.0" inkscape:pageopacity="0" inkscape:pageshadow="2" inkscape:zoom="2" inkscape:cx="94.86767" inkscape:cy="65.394368" inkscape:document-units="mm" inkscape:current-layer="layer1" showgrid="false" units="px" width="100px" inkscape:window-width="1440" inkscape:window-height="884" inkscape:window-x="0" inkscape:window-y="0" inkscape:window-maximized="1" inkscape:snap-intersection-paths="true" inkscape:snap-smooth-nodes="true" inkscape:snap-global="false"/>
  <metadata id="metadata5">
    <rdf:RDF>
      <cc:Work rdf:about="">
        <dc:format>image/svg+xml</dc:format>
        <dc:type rdf:resource="http://purl.org/dc/dcmitype/StillImage"/>
        <dc:title/>
      </cc:Work>
    </rdf:RDF>
  </metadata>
  <g inkscape:label="Layer 1" inkscape:groupmode="layer" id="layer1" transform="translate(0,-270.54167)">
    <circle style="color:#000000;display:inline;overflow:visible;visibility:visible;opacity:1;fill:#dc322f;fill-opacity:1;fill-rule:nonzero;stroke:none;stroke-width:0.33363867;stroke-linecap:round;stroke-linejoin:round;stroke-miterlimit:4;stroke-dasharray:none;stroke-dashoffset:0;stroke-opacity:1;marker:none;enable-background:accumulate;" id="path4491" cx="13.229167" cy="283.77084" r="12.650208"/>
    <g id="g4551" transform="translate(-0.52916667,-0.13229167)" style="filter:url(#filter4945)">
      <g style="fill:#ffffff;stroke:#dc322f;stroke-width:12.13004494;stroke-linecap:butt;stroke-linejoin:miter;stroke-miterlimit:4;stroke-dasharray:none;stroke-opacity:1;paint-order:markers fill stroke" transform="matrix(0,-0.03297597,0.03297597,0,5.3121846,291.68166)" id="g4679">
        <g style="fill:#ffffff;stroke:#dc322f;stroke-width:12.13004494;stroke-linecap:butt;stroke-linejoin:miter;stroke-miterlimit:4;stroke-dasharray:none;stroke-opacity:1;paint-order:markers fill stroke" id="g4613">
          <g style="fill:#ffffff;stroke:#dc322f;stroke-width:12.13004494;stroke-linecap:butt;stroke-linejoin:miter;stroke-miterlimit:4;stroke-dasharray:none;stroke-opacity:1;paint-order:markers fill stroke" id="g4611">
            <path inkscape:connector-curvature="0" id="path4609" d="M 332.80078,4.0136719 C 269.26726,4.0505978 208.0294,43.890363 181.68443,101.69872 c -19.35808,41.41566 -21.10219,91.21782 -3.89146,133.7505 -56.09304,56.42663 -112.894592,112.24409 -168.5410169,169.05469 -3.2466019,9.31483 -0.1503892,19.3395 -1.2402343,28.95703 0.3231698,23.11585 -0.862228,46.38129 0.6425781,69.40234 4.6168351,8.27393 15.6319891,4.38373 23.2636511,5.08074 20.725185,-0.22661 41.639831,0.82085 62.218771,-0.58074 9.625551,-6.10231 15.885131,-16.09674 24.709381,-23.21822 4.77164,-3.85776 7.54072,-9.77941 6.11484,-15.91459 0,-9.58789 0,-19.17578 0,-28.76367 12.98998,-0.9273 26.35055,1.51455 39.11133,-1.15821 7.61645,-4.8817 2.52899,-14.95888 5.1289,-21.85351 6.10524,-6.01787 16.97386,2.45143 22.34375,-5.45508 4.31605,-7.34267 0.61249,-16.25263 1.83594,-24.22461 1.12142,-4.26403 -3.06789,-13.61056 4.00586,-12.17773 10.26844,-0.47558 20.87203,1.47424 30.88672,-0.96094 12.18172,-9.77809 21.96178,-22.16009 33.51424,-32.65194 4.44758,-2.64174 7.61145,-11.35234 12.91656,-9.94067 56.62619,22.24078 124.73185,10.23299 170.36248,-29.75839 44.31338,-37.51779 66.80367,-98.89094 56.71583,-156.19893 C 492.15569,86.145441 449.143,34.119817 392.7678,14.185664 373.59197,7.1998937 353.26879,3.7258306 332.80078,4.0136719 Z m 4.61914,17.2050781 c 57.51869,0.265903 112.72662,36.771932 135.98644,89.30906 22.65373,49.39705 16.09401,110.82416 -17.18761,153.92727 -31.4332,42.02168 -85.60203,65.86986 -137.83939,59.5577 -16.43178,-1.6009 -32.24308,-6.93355 -47.57272,-12.57919 -8.80697,1.01573 -12.53629,10.52955 -19.15843,15.33617 -10.22453,10.22453 -20.44907,20.44907 -30.6736,30.6736 -13.47382,0.79983 -27.31167,-1.50011 -40.54297,1.16602 -7.32247,5.05267 -3.11634,15.2199 -4.51172,22.60351 -0.30436,5.11082 2.91944,13.32172 -3.35547,15.99023 -6.68661,0.5185 -16.72836,-2.49177 -20.5664,4.9375 -1.86525,6.50531 -0.20357,13.33917 -0.89844,19.99024 -12.98811,0.89613 -26.36885,-1.52759 -39.10547,1.20508 -6.96222,4.74853 -3.4885,14.55536 -4.29341,21.58328 -0.59772,8.90963 1.48069,18.53824 -1.18901,27.01633 -7.000165,6.00925 -12.438372,14.45426 -20.525392,18.84179 -20.292318,0 -40.584635,0 -60.876953,0 0.911472,-8.13881 -1.393498,-16.88863 1.261719,-24.64843 C 78.171637,413.9929 130.69155,362.4961 182.0293,309.94727 c 3.6576,-6.44023 -6.59945,-14.70636 -11.50586,-8.29688 -19.52549,18.32288 -37.85703,37.89538 -57.04389,56.581 C 84.000691,387.71025 54.52183,417.18911 25.042969,446.66797 26.18421,434.9558 23.581127,422.57688 26.371094,411.24219 82.677117,354.63902 139.61617,298.59034 195.51758,241.62891 198.72531,233.62765 191.37661,226.53367 190.1322,218.78407 172.67427,165.18368 188.51102,102.48251 229.59298,63.804 258.107,36.197182 297.68858,20.358925 337.41992,21.21875 Z" style="fill:#ffffff;stroke:none;stroke-width:12.13004494;stroke-linecap:butt;stroke-linejoin:miter;stroke-miterlimit:4;stroke-dasharray:none;stroke-opacity:1;paint-order:markers fill stroke"/>
          </g>
        </g>
        <g style="fill:#ffffff;stroke:#dc322f;stroke-width:12.13004494;stroke-linecap:butt;stroke-linejoin:miter;stroke-miterlimit:4;stroke-dasharray:none;stroke-opacity:1;paint-order:markers fill stroke" id="g4619">
          <g style="fill:#ffffff;stroke:#dc322f;stroke-width:12.13004494;stroke-linecap:butt;stroke-linejoin:miter;stroke-miterlimit:4;stroke-dasharray:none;stroke-opacity:1;paint-order:markers fill stroke" id="g4617"/>
        </g>
        <g style="fill:#ffffff;stroke:#dc322f;stroke-width:12.13004494;stroke-linecap:butt;stroke-linejoin:miter;stroke-miterlimit:4;stroke-dasharray:none;stroke-opacity:1;paint-order:markers fill stroke" id="g4621"/>
        <g style="fill:#ffffff;stroke:#dc322f;stroke-width:12.13004494;stroke-linecap:butt;stroke-linejoin:miter;stroke-miterlimit:4;stroke-dasharray:none;stroke-opacity:1;paint-order:markers fill stroke" id="g4623"/>
        <g style="fill:#ffffff;stroke:#dc322f;stroke-width:12.13004494;stroke-linecap:butt;stroke-linejoin:miter;stroke-miterlimit:4;stroke-dasharray:none;stroke-opacity:1;paint-order:markers fill stroke" id="g4625"/>
        <g style="fill:#ffffff;stroke:#dc322f;stroke-width:12.13004494;stroke-linecap:butt;stroke-linejoin:miter;stroke-miterlimit:4;stroke-dasharray:none;stroke-opacity:1;paint-order:markers fill stroke" id="g4627"/>
        <g style="fill:#ffffff;stroke:#dc322f;stroke-width:12.13004494;stroke-linecap:butt;stroke-linejoin:miter;stroke-miterlimit:4;stroke-dasharray:none;stroke-opacity:1;paint-order:markers fill stroke" id="g4629"/>
        <g style="fill:#ffffff;stroke:#dc322f;stroke-width:12.13004494;stroke-linecap:butt;stroke-linejoin:miter;stroke-miterlimit:4;stroke-dasharray:none;stroke-opacity:1;paint-order:markers fill stroke" id="g4631"/>
        <g style="fill:#ffffff;stroke:#dc322f;stroke-width:12.13004494;stroke-linecap:butt;stroke-linejoin:miter;stroke-miterlimit:4;stroke-dasharray:none;stroke-opacity:1;paint-order:markers fill stroke" id="g4633"/>
        <g style="fill:#ffffff;stroke:#dc322f;stroke-width:12.13004494;stroke-linecap:butt;stroke-linejoin:miter;stroke-miterlimit:4;stroke-dasharray:none;stroke-opacity:1;paint-order:markers fill stroke" id="g4635"/>
        <g style="fill:#ffffff;stroke:#dc322f;stroke-width:12.13004494;stroke-linecap:butt;stroke-linejoin:miter;stroke-miterlimit:4;stroke-dasharray:none;stroke-opacity:1;paint-order:markers fill stroke" id="g4637"/>
        <g style="fill:#ffffff;stroke:#dc322f;stroke-width:12.13004494;stroke-linecap:butt;stroke-linejoin:miter;stroke-miterlimit:4;stroke-dasharray:none;stroke-opacity:1;paint-order:markers fill stroke" id="g4639"/>
        <g style="fill:#ffffff;stroke:#dc322f;stroke-width:12.13004494;stroke-linecap:butt;stroke-linejoin:miter;stroke-miterlimit:4;stroke-dasharray:none;stroke-opacity:1;paint-order:markers fill stroke" id="g4641"/>
        <g style="fill:#ffffff;stroke:#dc322f;stroke-width:12.13004494;stroke-linecap:butt;stroke-linejoin:miter;stroke-miterlimit:4;stroke-dasharray:none;stroke-opacity:1;paint-order:markers fill stroke" id="g4643"/>
        <g style="fill:#ffffff;stroke:#dc322f;stroke-width:12.13004494;stroke-linecap:butt;stroke-linejoin:miter;stroke-miterlimit:4;stroke-dasharray:none;stroke-opacity:1;paint-order:markers fill stroke" id="g4645"/>
        <g style="fill:#ffffff;stroke:#dc322f;stroke-width:12.13004494;stroke-linecap:butt;stroke-linejoin:miter;stroke-miterlimit:4;stroke-dasharray:none;stroke-opacity:1;paint-order:markers fill stroke" id="g4647"/>
        <g style="fill:#ffffff;stroke:#dc322f;stroke-width:12.13004494;stroke-linecap:butt;stroke-linejoin:miter;stroke-miterlimit:4;stroke-dasharray:none;stroke-opacity:1;paint-order:markers fill stroke" id="g4649"/>
      </g>
      <path sodipodi:nodetypes="cccccccccccccccc" inkscape:connector-curvature="0" d="m 9.4968677,279.44071 1.5005973,-1.75837 1.613217,1.74011 m -5.1936138,-0.0339 7.1819908,0.0222 m -3.588243,4.5804 2.086696,-6.30668 m -4.2001378,-0.004 2.1134388,6.31097 m -3.593747,-4.60262 3.593747,4.60262 3.588247,-4.58042 -1.501553,-1.72627 -2.100205,-0.002 -2.0999383,-0.002 z" style="fill:none;fill-rule:evenodd;stroke:#ffffff;stroke-width:0.40200001;stroke-linecap:butt;stroke-linejoin:round;stroke-miterlimit:4;stroke-dasharray:none;stroke-opacity:1" id="path4714"/>
    </g>
  </g>
</svg>
